<?xml version="1.0" encoding="utf-8"?><svg xmlns="http://www.w3.org/2000/svg" xmlns:xlink="http://www.w3.org/1999/xlink"><symbol viewBox="0 0 18.164 13.922" id="check" xmlns="http://www.w3.org/2000/svg"><path d="M17.836 3.516L9.352 12l-1.594 1.594a1.136 1.136 0 1-1.594 0 NaNL2.976 NaN.328 NaNa1.136 1.136 0 10-1.594 NaN NaNlNaN NaNa1.136 1.136 0 11.594 0 NaN NaNlNaN NaN NaN NaNa1.132 1.132 0 11.593 0 NaN NaNlNaN NaNa1.136 1.136 0 10 1.594 NaN NaNz"/></symbol><symbol viewBox="0 0 22.012 17.295" id="envelope" xmlns="http://www.w3.org/2000/svg"><path d="M19.911 5.331c-1.916 1.327-3.845 2.653-5.748 3.992-.799.553-2.15 1.683-3.145 1.683h-.025c-.995 0-2.346-1.13-3.145-1.683-1.903-1.339-3.831-2.665-5.735-3.992C1.241 4.741 0 3.354 0 2.235 0 1.032.651 0 1.965 0h18.082c1.068 0 1.965.884 1.965 1.965 0 1.376-1.02 2.617-2.101 3.366zm2.101 9.999c0 1.08-.885 1.965-1.965 1.965H1.965a1.971 1.971 0 10 15.33 NaN NaNvNaNcNaN NaN NaN NaN NaN NaN NaN NaN NaN NaN NaN NaN NaN NaN NaN NaN NaN NaNhNaNcNaN NaN NaN NaN NaN NaN NaN NaN NaN NaN NaN NaNa7.28 7.28 0 1.229-1.069 NaN NaNvNaNz"/></symbol><symbol viewBox="0 0 26 22" id="github" xmlns="http://www.w3.org/2000/svg"><path d="M25.047 17.422C22.984 21.594 17.313 22 13.25 22 9.125 22 3.109 21.641.969 17.422.172 15.844 0 13.984 0 12.25c0-2.281.625-4.438 2.125-6.188A8.585 8.585 0 1-.422-.531 NaNc2.234 NaN 2.5 NaN 3.031 NaN 2.469 NaN 4.047 NaN 5.922 NaNa20.895 20.895 0 113.25 2 NaN NaNcNaN NaN NaN NaN NaN NaN NaN NaN NaN NaN NaN NaNa7.629 7.629 0 1.797 3.406 NaN NaNcNaN NaN NaN NaN NaN NaN NaN NaN NaN NaN NaN NaN NaN NaN NaN NaN NaN NaNzM18.5 10.5c-1.031 0-2.016.188-3.047.328-.812.125-1.625.172-2.453.172s-1.641-.047-2.453-.172c-1.016-.14-2.016-.328-3.047-.328-2.547 0-4 2.109-4 4.5 0 4.781 4.375 5.516 8.188 5.516h2.625c3.813 0 8.188-.734 8.188-5.516-.001-2.391-1.454-4.5-4.001-4.5zM8 18c-1.406 0-2-1.859-2-3s.594-3 2-3 2 1.859 2 3-.594 3-2 3zm10 0c-1.406 0-2-1.859-2-3s.594-3 2-3 2 1.859 2 3-.594 3-2 3z"/></symbol></svg>